<svg width="24" height="24" viewBox="0 0 24 24" fill="none" xmlns="http://www.w3.org/2000/svg">
<path d="M12.535 7.6L8.81503 16H7.93903L4.21903 7.6H5.17903L8.39503 14.896L11.635 7.6H12.535ZM16.1182 16.072C15.4942 16.072 14.8942 15.972 14.3182 15.772C13.7502 15.572 13.3102 15.308 12.9982 14.98L13.3462 14.296C13.6502 14.6 14.0542 14.848 14.5582 15.04C15.0622 15.224 15.5822 15.316 16.1182 15.316C16.8702 15.316 17.4342 15.18 17.8102 14.908C18.1862 14.628 18.3742 14.268 18.3742 13.828C18.3742 13.492 18.2702 13.224 18.0622 13.024C17.8622 12.824 17.6142 12.672 17.3182 12.568C17.0222 12.456 16.6102 12.336 16.0822 12.208C15.4502 12.048 14.9462 11.896 14.5702 11.752C14.1942 11.6 13.8702 11.372 13.5982 11.068C13.3342 10.764 13.2022 10.352 13.2022 9.832C13.2022 9.408 13.3142 9.024 13.5382 8.68C13.7622 8.328 14.1062 8.048 14.5702 7.84C15.0342 7.632 15.6102 7.528 16.2982 7.528C16.7782 7.528 17.2462 7.596 17.7022 7.732C18.1662 7.86 18.5662 8.04 18.9022 8.272L18.6022 8.98C18.2502 8.748 17.8742 8.576 17.4742 8.464C17.0742 8.344 16.6822 8.284 16.2982 8.284C15.5622 8.284 15.0062 8.428 14.6302 8.716C14.2622 8.996 14.0782 9.36 14.0782 9.808C14.0782 10.144 14.1782 10.416 14.3782 10.624C14.5862 10.824 14.8422 10.98 15.1462 11.092C15.4582 11.196 15.8742 11.312 16.3942 11.44C17.0102 11.592 17.5062 11.744 17.8822 11.896C18.2662 12.04 18.5902 12.264 18.8542 12.568C19.1182 12.864 19.2502 13.268 19.2502 13.78C19.2502 14.204 19.1342 14.592 18.9022 14.944C18.6782 15.288 18.3302 15.564 17.8582 15.772C17.3862 15.972 16.8062 16.072 16.1182 16.072Z" fill="#F4F4F4"/>
<rect x="0.5" y="0.5" width="23" height="23" rx="11.5" stroke="#F4F4F4"/>
</svg>
