<svg width="24" height="24" viewBox="0 0 24 24" fill="none" xmlns="http://www.w3.org/2000/svg">
<mask id="mask0_1_1143" style="mask-type:alpha" maskUnits="userSpaceOnUse" x="0" y="0" width="24" height="24">
<rect width="24" height="24" fill="#D9D9D9"/>
</mask>
<g mask="url(#mask0_1_1143)">
<path d="M0.0749512 17.925V16.425C0.0749512 15.7083 0.437618 15.1333 1.16295 14.7C1.88762 14.2667 2.83328 14.05 3.99995 14.05C4.23328 14.05 4.45428 14.0623 4.66295 14.087C4.87095 14.1123 5.07495 14.1417 5.27495 14.175C5.05828 14.4917 4.89562 14.8377 4.78695 15.213C4.67895 15.5877 4.62495 15.9833 4.62495 16.4V17.925H0.0749512ZM6.07495 17.925V16.4C6.07495 15.3333 6.62095 14.4667 7.71295 13.8C8.80429 13.1333 10.2333 12.8 12 12.8C13.7833 12.8 15.2206 13.1333 16.312 13.8C17.4039 14.4667 17.95 15.3333 17.95 16.4V17.925H6.07495ZM19.375 17.925V16.4C19.375 15.9833 19.3206 15.5877 19.212 15.213C19.104 14.8377 18.9416 14.4917 18.725 14.175C18.925 14.1417 19.1293 14.1123 19.3379 14.087C19.5459 14.0623 19.7666 14.05 20 14.05C21.1833 14.05 22.1376 14.2667 22.863 14.7C23.5876 15.1333 23.95 15.7083 23.95 16.425V17.925H19.375ZM3.99995 12.925C3.46662 12.925 3.01262 12.7373 2.63795 12.362C2.26262 11.9873 2.07495 11.5333 2.07495 11C2.07495 10.4667 2.26262 10.0083 2.63795 9.62499C3.01262 9.24165 3.46662 9.04999 3.99995 9.04999C4.53328 9.04999 4.99162 9.24165 5.37495 9.62499C5.75828 10.0083 5.94995 10.4667 5.94995 11C5.94995 11.5333 5.75828 11.9873 5.37495 12.362C4.99162 12.7373 4.53328 12.925 3.99995 12.925ZM20 12.925C19.4666 12.925 19.0126 12.7373 18.638 12.362C18.2626 11.9873 18.075 11.5333 18.075 11C18.075 10.4667 18.2626 10.0083 18.638 9.62499C19.0126 9.24165 19.4666 9.04999 20 9.04999C20.5333 9.04999 20.9916 9.24165 21.375 9.62499C21.7583 10.0083 21.95 10.4667 21.95 11C21.95 11.5333 21.7583 11.9873 21.375 12.362C20.9916 12.7373 20.5333 12.925 20 12.925ZM12 11.925C11.1833 11.925 10.4916 11.6417 9.92495 11.075C9.35828 10.5083 9.07495 9.81665 9.07495 8.99999C9.07495 8.18332 9.35828 7.48732 9.92495 6.91199C10.4916 6.33732 11.1833 6.04999 12 6.04999C12.8166 6.04999 13.5126 6.33732 14.088 6.91199C14.6626 7.48732 14.95 8.18332 14.95 8.99999C14.95 9.81665 14.6626 10.5083 14.088 11.075C13.5126 11.6417 12.8166 11.925 12 11.925Z" fill="#F4F4F4"/>
</g>
</svg>
