<svg width="24" height="24" viewBox="0 0 24 24" fill="none" xmlns="http://www.w3.org/2000/svg">
<path fill-rule="evenodd" clip-rule="evenodd" d="M2.58579 2.58579C2 3.17157 2 4.11438 2 6V18C2 19.8856 2 20.8284 2.58579 21.4142C3.17157 22 4.11438 22 6 22H18C19.8856 22 20.8284 22 21.4142 21.4142C22 20.8284 22 19.8856 22 18V6C22 4.11438 22 3.17157 21.4142 2.58579C20.8284 2 19.8856 2 18 2H6C4.11438 2 3.17157 2 2.58579 2.58579ZM16.7641 15.418C15.8401 16.552 14.4261 17.168 12.7181 17.168C9.68011 17.168 7.41211 15.054 7.41211 12.1C7.41211 9.14598 9.68011 7.03198 12.7321 7.03198C14.4261 7.03198 15.8401 7.64798 16.7641 8.76798L15.3081 10.112C14.6501 9.35598 13.8241 8.96398 12.8441 8.96398C11.0101 8.96398 9.70811 10.252 9.70811 12.1C9.70811 13.948 11.0101 15.236 12.8441 15.236C13.8241 15.236 14.6501 14.844 15.3081 14.074L16.7641 15.418Z" fill="#F4F4F4"/>
</svg>
