<svg width="24" height="24" viewBox="0 0 24 24" fill="none" xmlns="http://www.w3.org/2000/svg">
<path d="M4 6H7.63636V9.63636H4V6Z" fill="#F4F4F4"/>
<path d="M4 14.7273H7.63636V18.3636H4V14.7273Z" fill="#F4F4F4"/>
<path d="M4 10.3636H7.63636V14H4V10.3636Z" fill="#F4F4F4"/>
<path d="M9.09091 6H9.81818V9.63636H9.09091V6Z" fill="#F4F4F4"/>
<path d="M19.2727 6V6.72727L9.81818 6.72727V6H19.2727Z" fill="#F4F4F4"/>
<path d="M19.2727 8.90909V9.63636L9.81818 9.63636V8.90909L19.2727 8.90909Z" fill="#F4F4F4"/>
<path d="M19.2727 10.3636V11.0909H9.81818V10.3636H19.2727Z" fill="#F4F4F4"/>
<path d="M19.2727 13.2727V14L9.81818 14V13.2727L19.2727 13.2727Z" fill="#F4F4F4"/>
<path d="M19.2727 14.7273V15.4545L9.81818 15.4545V14.7273H19.2727Z" fill="#F4F4F4"/>
<path d="M19.2727 17.6364V18.3636H9.81818V17.6364L19.2727 17.6364Z" fill="#F4F4F4"/>
<path d="M9.09091 10.3636H9.81818V14H9.09091V10.3636Z" fill="#F4F4F4"/>
<path d="M9.09091 14.7273H9.81818V18.3636H9.09091V14.7273Z" fill="#F4F4F4"/>
<path d="M19.2727 6H20V9.63636L19.2727 9.63636V6Z" fill="#F4F4F4"/>
<path d="M19.2727 10.3636H20V14L19.2727 14V10.3636Z" fill="#F4F4F4"/>
<path d="M19.2727 14.7273H20V18.3636H19.2727V14.7273Z" fill="#F4F4F4"/>
</svg>
