<svg width="140" height="28" viewBox="0 0 140 28" fill="none" xmlns="http://www.w3.org/2000/svg">
<path d="M47.0692 6.257H42.4243V22.7247H47.0692V6.257Z" fill="white"/>
<path d="M140 6.22534H124.486V10.4056H129.936V22.408L134.581 27V10.4056H140V6.22534Z" fill="white"/>
<path d="M60.6326 14.0792L52.9529 6.257H49.7324V22.6931H54.3774V14.3325L62.5835 22.6931H65.2466V6.257H60.6326V14.0792Z" fill="white"/>
<path d="M83.424 10.4373V6.257H71.409C69.4891 6.257 67.9098 7.87211 67.9098 9.83557V19.1462C67.9098 21.1096 69.4891 22.7247 71.409 22.7247H83.424V18.5445H72.5548V10.4373H83.424Z" fill="white"/>
<path d="M30.9047 6.257V7.52375L21.5528 17.0877V22.7247H22.5127L26.6313 18.5445H35.1161V22.7247H39.7611V6.257H30.9047ZM30.7189 14.3642L35.1161 9.86724V14.3642H30.7189Z" fill="white"/>
<path d="M95.2842 7.65043L86.0872 17.0877V22.7247H87.0471L91.1657 18.5128H99.6505V22.6931H104.296V6.22534H95.2842V7.65043ZM95.2533 14.3642L99.6505 9.86724V14.3642H95.2533Z" fill="white"/>
<path d="M110.458 6.257C108.538 6.257 106.959 7.84044 106.959 9.83557V13.8892C106.959 15.3776 108.135 16.581 109.591 16.581C112.811 16.581 117.828 16.581 117.828 16.581V18.5761H110.737L106.959 22.4397V22.7247H118.974C120.894 22.7247 122.473 21.1413 122.473 19.1462V15.0926C122.473 13.6041 121.296 12.4007 119.841 12.4007H111.604V10.4373H118.695L122.473 6.57369V6.28867H110.458V6.257Z" fill="white"/>
<path d="M9.50674 10.4373L0.278699 1C0.154833 1.06334 0.123866 1.06334 0 1.12667V7.49208L9.53771 17.246C9.63061 17.246 9.69254 17.246 9.78544 17.246L14.5543 12.3691V22.3447L19.0445 26.9367C19.1683 26.8733 19.1993 26.8733 19.3232 26.81V5.49696C19.2612 5.43362 19.2303 5.40195 19.1683 5.33861H14.5233L9.75448 10.4373C9.66158 10.4373 9.63061 10.4373 9.50674 10.4373Z" fill="white"/>
<path d="M0.26087 27L6 20.5L0.26087 14C0.144928 14.0657 0.115942 14.0657 0 14.1313V26.8687C0.115942 26.9343 0.144928 26.9343 0.26087 27Z" fill="#E8222E"/>
</svg>
